<svg width="191" height="78" viewBox="0 0 191 78" fill="none" xmlns="http://www.w3.org/2000/svg">
<g clip-path="url(#clip0_631_75)">
<path d="M37.5601 16.8721H38.0131L38.8435 16.9493L39.3342 17.1037L40.0514 17.4126L40.5799 17.7601L41.0706 18.1461L41.5236 18.6094L41.9766 19.2658L42.2785 19.8835L42.5428 20.6943L42.656 21.3892V22.5089L42.5428 23.2038L42.354 23.7829L42.052 24.4393L41.7123 24.9798L41.3726 25.3659L40.9574 25.7906L40.4667 26.1766L39.8627 26.5241L38.9568 26.833L38.6548 26.9102L38.2018 26.9488L38.3151 26.9874L38.3528 33.9369L38.9945 34.0913L39.7872 34.4002L40.5044 34.7863L40.9196 35.0951L41.3726 35.5198L41.7878 36.0217L41.9011 36.1762L42.2408 36.0603L43.8262 35.211L45.1473 34.516L45.9778 34.0527L47.0347 33.5122L47.7519 33.1261L48.9221 32.5084L49.6393 32.1223L50.0167 31.9293H50.1677L49.9412 31.1185L49.8657 30.578V29.5742L49.979 28.8792L50.1677 28.2615L50.5074 27.5279L50.8094 27.0646L51.1491 26.6399L51.6776 26.138L52.3193 25.6747L52.9233 25.3659L53.5272 25.1728L54.2444 25.0184H55.3013L56.094 25.1728L56.6603 25.3659L57.2642 25.6747L57.7549 26.0222L58.2456 26.4469L58.5854 26.7944L59.0006 27.3735L59.3026 27.9526L59.5668 28.6862L59.68 29.1495L59.7178 29.4197V30.7324L59.5668 31.5046L59.3781 32.0837L59.1138 32.6242L58.6609 33.2805L58.2456 33.7438L57.8682 34.0913L57.302 34.4774L56.6225 34.7863L55.9431 35.0179L55.6033 35.0951H53.9802L53.414 34.9407L52.659 34.6704L52.0551 34.323L51.5266 33.8983L51.0359 33.3964L50.6962 32.9331L50.6207 32.8945L50.5829 33.0103L49.1485 33.7438L48.4313 34.1299L47.1857 34.7863L46.4685 35.1723L45.3738 35.7515L44.4679 36.2148L43.7507 36.6009L42.656 37.18L42.505 37.2572L42.5805 37.6047L42.6938 38.1066L42.7315 38.4154V39.9598L42.656 40.3458V40.4231L42.8447 40.4617L46.7705 42.006L49.4128 43.0484L50.13 43.3187L50.3565 43.4345L50.3942 43.4731L50.8094 42.7782L51.1491 42.3921L51.6021 41.9288L52.1683 41.5041L52.6968 41.1952L53.3762 40.925L54.1312 40.7705L54.5841 40.7319H55.0371L55.7543 40.8091L56.3205 40.9636L56.9622 41.2338L57.6039 41.6199L58.1324 42.0446L58.6231 42.5465L59.0383 43.1642L59.3403 43.782L59.5668 44.3997L59.68 44.9016L59.7555 45.8668L59.68 46.7548L59.4913 47.4884L59.2648 48.0675L58.9251 48.6852L58.5099 49.2257L58.0946 49.6504L57.5284 50.0751L57 50.384L56.4338 50.6156L55.6788 50.8087L55.4146 50.8473H54.1312L53.565 50.7314L52.7723 50.4612L52.1683 50.1523L51.5644 49.689L51.1869 49.3416L50.7717 48.801L50.4697 48.2991L50.1677 47.6428L49.9412 46.832L49.8657 46.2915V45.3263L49.979 44.5541L49.7902 44.5155L48.7333 44.0908L45.0341 42.6237L43.3355 41.9674L42.3918 41.5813L42.1653 41.5041L42.0898 41.7357L41.8256 42.1604L41.4103 42.6623L41.2216 42.894L40.8064 43.2415L40.2779 43.5889L39.4852 43.975L38.768 44.2067L38.3151 44.2453V50.2295L38.9568 50.3454L39.674 50.6156L40.5799 51.1175L40.9951 51.465L41.4481 51.9283L41.8256 52.4302L42.203 53.0865L42.4673 53.7815L42.6183 54.4378L42.656 54.9011V55.7505L42.5805 56.3296L42.354 57.1404L42.052 57.7581L41.7123 58.2986L41.2971 58.8392L40.9951 59.148L40.5044 59.4955L39.6362 59.9588L38.768 60.2291L38.0886 60.3063H37.1449L36.5032 60.1905L35.8615 59.9588L35.0688 59.5727L34.4648 59.1094L34.0119 58.6461L33.5967 58.067L33.3324 57.6037L33.0682 56.9474L32.8795 56.2524L32.804 55.5961V54.9011L32.9172 54.0904L33.1437 53.3954L33.4457 52.7777L33.7854 52.2372L34.1251 51.8125L34.6536 51.3106L35.182 50.9245L35.7483 50.6156L36.5409 50.3454L37.1826 50.2295L37.1449 49.8821V44.2453L36.5787 44.1681L35.9747 43.975L35.484 43.7434L34.9933 43.4731L34.3893 43.0098L34.0119 42.6237L33.5212 41.9674L33.2947 41.5427L33.0682 41.5813L31.6338 42.1604L30.5391 42.5851L27.0286 43.975L25.783 44.4769L25.5187 44.5541L25.632 45.751L25.5942 46.5232L25.481 47.1023L25.2545 47.7972L24.8393 48.608L24.4996 49.0713L24.0843 49.5346L23.6314 49.9207L23.0652 50.2681L22.499 50.5384L21.5175 50.8087L21.14 50.8473H20.0831L19.4792 50.7314L18.7997 50.4998L18.007 50.1137L17.5163 49.7276L17.1388 49.3802L16.7991 48.9941L16.4216 48.3763L16.1197 47.7972L15.9309 47.2181L15.8177 46.7548L15.7422 46.0212V45.5966L15.8554 44.7086L16.0819 43.9364L16.4594 43.1642L16.7991 42.6623L17.2143 42.1604L17.705 41.7357L18.2335 41.4269L18.8375 41.118L19.4792 40.8864L20.1586 40.7705L20.7248 40.7319L21.744 40.8478L22.5367 41.118L23.3671 41.5427L23.8956 41.9288L24.4241 42.4693L24.8393 43.0484L25.0658 43.4345H25.1413L25.5942 43.2415L26.5757 42.8554L28.1233 42.2376L32.804 40.3845H32.8795L32.7285 39.9598V38.5699L32.804 37.9907L32.9172 37.5274L32.9927 37.2958L32.0868 36.7939L31.2563 36.3692L30.5391 35.9831L29.067 35.211L28.1988 34.7477L26.9531 34.0913L26.2359 33.7052L25.4055 33.2805L24.877 32.9717H24.7638L24.4618 33.3578L24.0088 33.8597L23.4804 34.2844L22.7632 34.7091L22.1215 34.9407L21.7063 35.0565L21.3288 35.0951H19.8189L19.2149 34.9407L18.611 34.7091L18.007 34.3616L17.6673 34.0913L17.2521 33.7438L16.9501 33.435L16.5726 32.9331L16.1952 32.2381L16.0064 31.7362L15.8177 31.0027L15.7422 30.3463V29.7672L15.8554 28.9564L16.0819 28.1843L16.4594 27.4121L16.9878 26.7172L17.3276 26.3311L17.705 25.9836L18.3468 25.5975L18.913 25.3273L19.7434 25.057L20.4983 24.9798H20.8381L21.744 25.0956L22.5367 25.3659L23.2916 25.752L23.7824 26.0994L24.1976 26.4855L24.5373 26.9102L24.877 27.3735L25.2545 28.1071L25.5187 28.9564L25.632 29.8444V30.3849L25.5187 31.1957L25.33 31.852L25.2923 31.9293L25.5187 31.9679L26.4247 32.4312L27.1419 32.8172L28.463 33.5122L29.1802 33.8983L30.1994 34.4388L30.9166 34.8249L32.0113 35.404L32.7285 35.7901L33.4834 36.1762L33.6344 36.1376L33.9741 35.6743L34.1629 35.4426L34.4648 35.1723L34.8423 34.8635L35.484 34.4774L36.0502 34.2458L36.8052 34.0141L37.1072 33.9755L37.1449 33.628V27.026L37.1826 26.9874L36.8429 26.9102L36.2012 26.7558L35.5218 26.4855L35.1065 26.2539L34.5781 25.8292L34.0874 25.3659L33.7854 25.0184L33.4079 24.4007L33.1059 23.7443L32.9172 23.088L32.804 22.393V21.3892L32.9172 20.6943L33.1437 19.9993L33.4457 19.343L33.7476 18.8797L34.0874 18.455L34.5781 17.9917L35.2953 17.4898L35.8237 17.2195L36.4655 16.9879L36.9939 16.9107L37.5601 16.8721Z" fill="#E16428"/>
</g>
<path d="M75.768 48.144C75.432 48.16 75.168 48.072 74.976 47.88C74.784 47.688 74.688 47.448 74.688 47.16C74.688 46.936 74.76 46.744 74.904 46.584C75.032 46.408 75.24 46.312 75.528 46.296L76.272 46.224C77.056 46.16 77.656 45.888 78.072 45.408C78.488 44.928 78.696 44.272 78.696 43.44V32.04C78.696 31.672 78.792 31.392 78.984 31.2C79.176 31.008 79.448 30.912 79.8 30.912C80.152 30.912 80.424 31.008 80.616 31.2C80.808 31.392 80.904 31.672 80.904 32.04V43.44C80.904 44.384 80.736 45.192 80.4 45.864C80.08 46.52 79.6 47.04 78.96 47.424C78.32 47.792 77.52 48.016 76.56 48.096L75.768 48.144ZM88.8733 48.216C87.9293 48.216 87.1373 48.04 86.4973 47.688C85.8733 47.336 85.4093 46.816 85.1053 46.128C84.8013 45.44 84.6493 44.576 84.6493 43.536V37.248C84.6493 36.88 84.7373 36.608 84.9133 36.432C85.1053 36.24 85.3773 36.144 85.7293 36.144C86.0813 36.144 86.3533 36.24 86.5453 36.432C86.7373 36.608 86.8333 36.88 86.8333 37.248V43.536C86.8333 44.528 87.0333 45.264 87.4333 45.744C87.8333 46.208 88.4653 46.44 89.3293 46.44C90.2893 46.44 91.0653 46.12 91.6573 45.48C92.2653 44.84 92.5693 43.992 92.5693 42.936V37.248C92.5693 36.88 92.6573 36.608 92.8333 36.432C93.0253 36.24 93.2973 36.144 93.6493 36.144C94.0013 36.144 94.2733 36.24 94.4653 36.432C94.6573 36.608 94.7533 36.88 94.7533 37.248V47.04C94.7533 47.792 94.4013 48.168 93.6973 48.168C93.3453 48.168 93.0733 48.072 92.8813 47.88C92.7053 47.688 92.6173 47.408 92.6173 47.04V44.952L92.9293 45.36C92.6093 46.288 92.0893 47 91.3693 47.496C90.6653 47.976 89.8333 48.216 88.8733 48.216ZM99.3956 48.168C99.0596 48.168 98.7956 48.072 98.6036 47.88C98.4116 47.688 98.3156 47.408 98.3156 47.04V37.248C98.3156 36.88 98.4116 36.608 98.6036 36.432C98.7956 36.24 99.0596 36.144 99.3956 36.144C99.7316 36.144 99.9876 36.24 100.164 36.432C100.356 36.608 100.452 36.88 100.452 37.248V39.288L100.188 38.856C100.492 37.976 100.98 37.296 101.652 36.816C102.34 36.336 103.156 36.096 104.1 36.096C105.092 36.096 105.892 36.336 106.5 36.816C107.108 37.28 107.516 37.992 107.724 38.952H107.388C107.676 38.072 108.188 37.376 108.924 36.864C109.676 36.352 110.548 36.096 111.54 36.096C112.42 36.096 113.14 36.272 113.7 36.624C114.276 36.96 114.708 37.472 114.996 38.16C115.284 38.832 115.428 39.696 115.428 40.752V47.04C115.428 47.408 115.332 47.688 115.14 47.88C114.948 48.072 114.684 48.168 114.348 48.168C113.996 48.168 113.724 48.072 113.532 47.88C113.34 47.688 113.244 47.408 113.244 47.04V40.848C113.244 39.824 113.068 39.072 112.716 38.592C112.364 38.112 111.772 37.872 110.94 37.872C110.028 37.872 109.3 38.192 108.756 38.832C108.228 39.456 107.964 40.32 107.964 41.424V47.04C107.964 47.408 107.868 47.688 107.676 47.88C107.5 48.072 107.236 48.168 106.884 48.168C106.532 48.168 106.26 48.072 106.068 47.88C105.876 47.688 105.78 47.408 105.78 47.04V40.848C105.78 39.824 105.604 39.072 105.252 38.592C104.9 38.112 104.308 37.872 103.476 37.872C102.564 37.872 101.836 38.192 101.292 38.832C100.764 39.456 100.5 40.32 100.5 41.424V47.04C100.5 47.792 100.132 48.168 99.3956 48.168ZM122.66 48.216C121.86 48.216 121.132 48.056 120.476 47.736C119.836 47.416 119.332 46.984 118.964 46.44C118.612 45.896 118.436 45.288 118.436 44.616C118.436 43.752 118.652 43.072 119.084 42.576C119.516 42.08 120.244 41.728 121.268 41.52C122.292 41.296 123.668 41.184 125.396 41.184H126.524V42.576H125.444C124.212 42.576 123.236 42.632 122.516 42.744C121.812 42.856 121.316 43.056 121.028 43.344C120.74 43.616 120.596 44 120.596 44.496C120.596 45.12 120.812 45.632 121.244 46.032C121.692 46.432 122.3 46.632 123.068 46.632C123.676 46.632 124.212 46.488 124.676 46.2C125.14 45.896 125.508 45.496 125.78 45C126.052 44.488 126.188 43.904 126.188 43.248V40.488C126.188 39.544 125.996 38.864 125.612 38.448C125.228 38.016 124.58 37.8 123.668 37.8C123.14 37.8 122.596 37.872 122.036 38.016C121.476 38.16 120.892 38.384 120.284 38.688C120.044 38.8 119.836 38.84 119.66 38.808C119.484 38.76 119.34 38.664 119.228 38.52C119.132 38.36 119.076 38.192 119.06 38.016C119.06 37.824 119.1 37.64 119.18 37.464C119.276 37.288 119.436 37.16 119.66 37.08C120.364 36.728 121.06 36.48 121.748 36.336C122.452 36.176 123.108 36.096 123.716 36.096C124.756 36.096 125.612 36.264 126.284 36.6C126.956 36.92 127.46 37.424 127.796 38.112C128.132 38.784 128.3 39.648 128.3 40.704V47.04C128.3 47.408 128.212 47.688 128.036 47.88C127.86 48.072 127.604 48.168 127.268 48.168C126.948 48.168 126.692 48.072 126.5 47.88C126.324 47.688 126.236 47.408 126.236 47.04V45.336H126.452C126.324 45.928 126.084 46.44 125.732 46.872C125.38 47.304 124.94 47.64 124.412 47.88C123.9 48.104 123.316 48.216 122.66 48.216ZM136.2 48.216C135.176 48.216 134.272 47.976 133.488 47.496C132.72 47 132.12 46.296 131.688 45.384C131.256 44.456 131.04 43.376 131.04 42.144C131.04 40.896 131.248 39.824 131.664 38.928C132.096 38.016 132.696 37.32 133.464 36.84C134.248 36.344 135.16 36.096 136.2 36.096C137.24 36.096 138.136 36.36 138.888 36.888C139.64 37.4 140.144 38.088 140.4 38.952H140.136V32.016C140.136 31.648 140.224 31.376 140.4 31.2C140.592 31.008 140.864 30.912 141.216 30.912C141.568 30.912 141.84 31.008 142.032 31.2C142.224 31.376 142.32 31.648 142.32 32.016V47.04C142.32 47.408 142.224 47.688 142.032 47.88C141.84 48.072 141.568 48.168 141.216 48.168C140.88 48.168 140.616 48.072 140.424 47.88C140.232 47.688 140.136 47.408 140.136 47.04V44.856L140.4 45.288C140.16 46.184 139.656 46.896 138.888 47.424C138.136 47.952 137.24 48.216 136.2 48.216ZM136.704 46.488C137.408 46.488 138.016 46.32 138.528 45.984C139.056 45.648 139.456 45.16 139.728 44.52C140.016 43.88 140.16 43.088 140.16 42.144C140.16 40.736 139.848 39.664 139.224 38.928C138.6 38.192 137.76 37.824 136.704 37.824C136.016 37.824 135.408 37.992 134.88 38.328C134.368 38.648 133.968 39.128 133.68 39.768C133.392 40.408 133.248 41.2 133.248 42.144C133.248 43.552 133.56 44.632 134.184 45.384C134.824 46.12 135.664 46.488 136.704 46.488ZM151.222 48.216C149.958 48.216 148.87 47.976 147.958 47.496C147.062 47 146.366 46.304 145.87 45.408C145.374 44.496 145.126 43.424 145.126 42.192C145.126 40.976 145.366 39.912 145.846 39C146.342 38.088 147.014 37.376 147.862 36.864C148.726 36.352 149.71 36.096 150.814 36.096C151.598 36.096 152.302 36.232 152.926 36.504C153.566 36.76 154.11 37.136 154.558 37.632C155.006 38.128 155.342 38.736 155.566 39.456C155.806 40.16 155.926 40.96 155.926 41.856C155.926 42.112 155.846 42.312 155.686 42.456C155.542 42.584 155.326 42.648 155.038 42.648H146.83V41.256H154.486L154.078 41.592C154.078 40.76 153.95 40.056 153.694 39.48C153.454 38.888 153.094 38.44 152.614 38.136C152.15 37.832 151.566 37.68 150.862 37.68C150.094 37.68 149.438 37.864 148.894 38.232C148.35 38.584 147.934 39.088 147.646 39.744C147.358 40.384 147.214 41.128 147.214 41.976V42.12C147.214 43.56 147.558 44.648 148.246 45.384C148.934 46.12 149.926 46.488 151.222 46.488C151.734 46.488 152.254 46.424 152.782 46.296C153.326 46.168 153.846 45.936 154.342 45.6C154.582 45.456 154.798 45.392 154.99 45.408C155.198 45.408 155.366 45.472 155.494 45.6C155.622 45.712 155.702 45.856 155.734 46.032C155.766 46.192 155.742 46.368 155.662 46.56C155.582 46.752 155.43 46.92 155.206 47.064C154.678 47.432 154.046 47.72 153.31 47.928C152.59 48.12 151.894 48.216 151.222 48.216ZM162.919 48.168C162.615 48.168 162.351 48.088 162.127 47.928C161.903 47.768 161.711 47.512 161.551 47.16L157.471 37.656C157.359 37.384 157.319 37.136 157.351 36.912C157.383 36.688 157.487 36.504 157.663 36.36C157.855 36.216 158.111 36.144 158.431 36.144C158.703 36.144 158.919 36.208 159.079 36.336C159.239 36.464 159.391 36.688 159.535 37.008L163.303 46.296H162.631L166.495 37.008C166.623 36.688 166.767 36.464 166.927 36.336C167.103 36.208 167.343 36.144 167.647 36.144C167.919 36.144 168.127 36.216 168.271 36.36C168.431 36.504 168.527 36.688 168.559 36.912C168.591 37.136 168.543 37.376 168.415 37.632L164.311 47.16C164.167 47.512 163.975 47.768 163.735 47.928C163.511 48.088 163.239 48.168 162.919 48.168ZM174.698 48.216C173.978 48.216 173.25 48.136 172.514 47.976C171.794 47.8 171.114 47.504 170.474 47.088C170.298 46.976 170.17 46.84 170.09 46.68C170.026 46.504 170.002 46.336 170.018 46.176C170.05 46 170.122 45.848 170.234 45.72C170.346 45.592 170.482 45.52 170.642 45.504C170.818 45.472 171.002 45.512 171.194 45.624C171.818 45.976 172.418 46.224 172.994 46.368C173.586 46.512 174.17 46.584 174.746 46.584C175.626 46.584 176.29 46.424 176.738 46.104C177.186 45.784 177.41 45.36 177.41 44.832C177.41 44.384 177.258 44.04 176.954 43.8C176.666 43.544 176.21 43.352 175.586 43.224L173.354 42.768C172.362 42.544 171.61 42.176 171.098 41.664C170.602 41.136 170.354 40.464 170.354 39.648C170.354 38.928 170.546 38.304 170.93 37.776C171.33 37.232 171.882 36.816 172.586 36.528C173.29 36.24 174.098 36.096 175.01 36.096C175.714 36.096 176.378 36.192 177.002 36.384C177.642 36.56 178.218 36.832 178.73 37.2C178.922 37.312 179.042 37.456 179.09 37.632C179.154 37.792 179.162 37.96 179.114 38.136C179.082 38.296 179.01 38.432 178.898 38.544C178.786 38.656 178.642 38.728 178.466 38.76C178.29 38.776 178.098 38.728 177.89 38.616C177.426 38.296 176.946 38.072 176.45 37.944C175.97 37.8 175.49 37.728 175.01 37.728C174.146 37.728 173.49 37.896 173.042 38.232C172.61 38.568 172.394 39.008 172.394 39.552C172.394 39.968 172.522 40.312 172.778 40.584C173.05 40.856 173.474 41.056 174.05 41.184L176.282 41.64C177.322 41.864 178.106 42.224 178.634 42.72C179.162 43.2 179.426 43.856 179.426 44.688C179.426 45.776 178.994 46.64 178.13 47.28C177.282 47.904 176.138 48.216 174.698 48.216Z" fill="#E16428"/>
<defs>
<clipPath id="clip0_631_75">
<path d="M0 0H58.4946C67.8834 0 75.4946 7.61116 75.4946 17V77.2164H0V0Z" fill="white"/>
</clipPath>
</defs>
</svg>
